<svg xmlns="http://www.w3.org/2000/svg" viewBox="0 0 1920 1080"><defs><style>.cls-1,.cls-5{fill:#007599;}.cls-1,.cls-2{opacity:0.4;}.cls-2{fill:#003f72;}.cls-3{fill:#fff;opacity:0.01;}.cls-4{opacity:0.22;}</style></defs><g id="Слой_2" data-name="Слой 2"><path class="cls-1" d="M1920,919.66s-240.78-292.74-708-195.53c-319.2,66.41-391,226.39-732.82,243C136.52,983.89,0,919.66,0,919.66H0s161.42,88,485.26,79.2c349.7-9.5,622.17-212.29,893.1-244.71,517-61.86,541.64,278,541.64,278Z"/><path class="cls-2" d="M0,789.51S240.14,1082.25,706.16,985c318.36-66.4,389.92-226.39,730.88-243,341.69-16.7,477.85,47.52,477.85,47.52h0s-161-88-484-79.2C1082.15,719.81,810.41,922.6,540.2,955,24.6,1016.88,0,677.05,0,677.05Z"/><path class="cls-1" d="M1607.68,1080.73s254.61-125.24,170.06-368.28c-57.75-166-196.89-203.35-211.38-381.16-14.53-178.2,57.75-232.84,57.75-232.84h0s-93,67.59-85.31,236c8.27,181.9,184.64,323.61,212.83,464.53,53.8,268.89-241.75,281.73-241.75,281.73Z"/><path class="cls-2" d="M1626.65,144.42s-160.37,62.56-75.83,305c57.76,165.59,196.9,202.81,211.39,380.15,14.53,177.73-41.33,248.55-41.33,248.55h0s76.54-83.74,68.88-251.73c-8.26-181.41-184.63-322.75-212.82-463.29-53.8-268.18,119.19-246.92,119.19-246.92Z"/><path class="cls-3" d="M143,89.87s-143.77,66.22-68,322.77C126.84,587.9,251.58,627.3,264.57,815c13,188.11-37,263.07-37,263.07h0s68.61-88.63,61.75-266.43c-7.41-192-165.52-341.61-190.8-490.37C50.24,37.43,205.33,59.92,205.33,59.92Z"/><g class="cls-4"><path class="cls-5" d="M193.33,715.47c-43.92-60.88-64.17-130-68.83-204-3.36-53.22,10-103.16,33.7-150.61a24.7,24.7,0,0,0,2.32-12.48c-2.4-28.78-6.33-57.46-3.05-86.46,2.16-19.06,7-36.94,21.63-50.5C196.87,195,214.54,178.32,233,162.67c6.89-5.84,15.73-9.62,24.12-13.38,6.46-2.9,11.17-.46,13.75,6.1,2.25,5.73,4.8,11.58,5.6,17.59,2.05,15.24,2.83,30.65,4.82,45.9,1.41,10.76,1,21.08-3.15,31.17-3.52,8.55-6.58,17.32-10.55,25.66C261,289.62,253.26,303,247,317.09c-6,13.52-2.58,24.85,8.8,33.88,6.75,5.34,13.71,10.4,20.47,15.71,5,3.95,10.22,7.76,14.66,12.3,2.47,2.52,4.18,3.52,7.78,2.66Q350.79,369.21,403,357.2c18.21-4.21,19.79-3.84,24.65,14.28,5.24,19.54,9,39.49,13.25,59.28.76,3.51,1.18,6.39,5.71,7.59,33.53,8.9,61.26,27.61,85.63,51.71,28.62,28.31,51.46,60.88,70.5,96.24,9.81,18.21,18.3,37.43,30.29,54.11,21.93,30.51,42.3,61.74,59.35,95.27,8.53,16.79,18,33.37,35.49,43.46,3.74,2.16,7.24,8,7.42,12.34a23.45,23.45,0,0,0,7.54,16.77,35.79,35.79,0,0,1,4.76,6.33c3.12,4.9,2.29,9.47-2.33,12.74-3.37,2.38-7.3,4-11.1,5.73-8,3.64-11.11,10.14-7.33,18.09,7.35,15.48,2.29,28.68-6.67,41.34a12.7,12.7,0,0,1-3,2.36c-1.13-6-2.16-11.4-3.06-16.11-10.46,3.63-19.56,7.58-29.06,9.85-9.74,2.33-19.88,3-31.14,4.59,3.77,5,7.23,9.55,11.85,15.65-5.78-1.62-10.46-2.35-14.61-4.24-6-2.74-11.48-6.6-17.43-9.44a66.46,66.46,0,0,0-14.56-5.28c-17.64-3.78-35.78-5.81-53-11.05-13.6-4.16-24.41-4.18-34.07,7.07a31.28,31.28,0,0,1-8.38,6.41c-10.12,5.73-19.9,12.53-30.71,16.44-15.34,5.54-24.51-.9-27.25-17.13-1-5.67-1-11.5-1.6-18.17C458,880.11,452.63,886.16,447,892c-15.4,16.15-30.83,32.3-52,41.11-15.27,6.34-26.35.8-28.16-15.57a100.17,100.17,0,0,1,1.63-32.08c3.7-16.68,3.74-35.28,19.71-47.37-1.78-.57-3.26-1-4.69-1.52-24.35-9-48.89-17.59-72.95-27.34-12.87-5.22-25-6.22-37.58-.32-5.39,2.51-10.93,4.7-16.38,7.08-15.27,6.68-30.39,8.47-45.59-.44-4.92-2.88-10.69-4.37-15.46-7.45-7.89-5.1-16.27-10-22.65-16.76-9-9.5-7.89-20,2.41-28.11,6.67-5.21,14.5-9.06,22.16-12.83,5.82-2.87,12.18-4.66,18.67-7.06C208.29,733.83,200.25,725.06,193.33,715.47Zm420.83-87.58a9.17,9.17,0,0,0-.34-2.92C589,572.58,559.44,523.51,515.3,484.69A189.12,189.12,0,0,0,453.74,448c-11-3.95-21.26-1-31.52,2.62-2.82,1-5.56,2.24-8.34,3.37-.25-.53-.49-1.06-.73-1.59,6-2.85,12-5.55,17.88-8.66,1.52-.81,3.53-3.1,3.32-4.39-4.06-25.9-9.28-51.52-19.22-75.88L226.89,404l-.27,1.13c6.71,0,13.46.5,20.12-.09a799.21,799.21,0,0,0,139.85-24.57,94.93,94.93,0,0,1,18.15-3.36c2.18-.16,6.1,2.31,6.62,4.27,5.12,19.33,9.7,38.8,14.44,58.23l-2.14.73c-1-2-1.88-4.05-2.9-6q-8.62-16.74-17.3-33.45c-.81-1.55-1.68-3.31-3-4.3-3.51-2.61-7.29-4.85-11-7.24-2.34,3.74-6.29,7.3-6.72,11.25-1.21,11.11-1,22.38-1.29,33.58-.06,2.3.18,4.61.28,6.91l-2,.82c-4.31-8.46-8.76-16.84-12.87-25.39-1.91-4-2.56-8.61-4.9-12.23-1.62-2.53-5.13-3.83-7.8-5.69-1.61,2.64-4.54,5.25-4.57,7.91-.1,6.78,1.13,13.57,1.75,20.37.38,4.06.62,8.14.93,12.22l-1.62.73a77.64,77.64,0,0,1-5.33-6.74c-4.93-7.84-9.52-15.9-14.61-23.63-1.26-1.9-3.93-2.86-5.95-4.26-.82,2.47-2.6,5.08-2.28,7.39.85,6.09,2.73,12,3.95,18.08.62,3.12.7,6.36,1,9.55l-1.82,1.06c-2.35-2.28-5.32-4.19-6.92-6.91-3.23-5.49-5.67-11.44-8.53-17.14-1.09-2.16-2.06-4.64-3.8-6.13s-4.48-2.06-6.77-3c-.82,2.12-2.47,4.31-2.3,6.35.42,5.25,1.71,10.42,2.53,15.65.56,3.54.92,7.12,1.37,10.69l-2,1.14c-2.33-2.28-5.18-4.22-6.87-6.9-2.93-4.63-5.08-9.76-7.7-14.6a32.83,32.83,0,0,0-4.66-7.13,6.94,6.94,0,0,0-5.14-1.74c-.74.08-1.74,2.92-1.68,4.46.19,4.62.9,9.22,1.29,13.83.16,1.84,0,3.7,0,5.56l-2.24,1.21c-3.32-4.28-6.82-8.43-9.89-12.87-2-2.87-2.89-6.58-5.15-9.14-1.43-1.61-4.47-1.8-6.8-2.63-.39,2.21-1.59,4.66-1,6.58,1.47,5,3.71,9.69,5.91,15.18-7.23,1.19-10.2-3-12.83-7.17-1.87-2.94-2.55-6.64-4.45-9.55-1.09-1.65-3.54-2.42-5.38-3.58-.76,2.1-2.22,4.24-2.12,6.3.13,2.94,1.39,5.83,2.37,9.47-5.85-1.45-7.8-5.13-9.39-9.65-.87-2.48-3.19-4.45-4.85-6.65-1.34,2.76-2.8,5.47-3.95,8.31-.46,1.13-.24,2.55-2,4.78-1.65-2.42-3.34-4.81-4.93-7.26-1.24-1.89-2.36-3.86-3.53-5.79-1.24,2.07-2.46,4.16-3.73,6.21a23.86,23.86,0,0,1-1.92,2.23l-5.26-12.91L189.57,412c-.57-.11-.88-.08-1-.2-5.87-8.25-18-12.49-15.79-26.53,2.71,11.46,11.45,11.8,20.28,12.66,9.17.9,18.24,2.35,27.76-2.33-4-1.88-7.54-3.37-10.89-5.15-2.32-1.23-5-2.42-6.48-4.43-2.37-3.29-6.34-8.95-5.22-10.56,3.49-5,7.7,0,11.25,1.8,5.27,2.72,10.14,6.23,15.33,9.15,2.14,1.2,4.66,1.72,7,2.55l1.38-1.62c-1.3-1.91-2.27-4.21-4-5.66C224.91,378,220,374.85,215.82,371c-1.58-1.46-1.81-4.38-2.66-6.63,2.38-.2,5.31-1.38,7-.41,5,2.79,9.4,6.49,14.1,9.74,3.81,2.63,7.54,5.46,11.65,7.51,1.7.85,4.3-.11,6.49-.25-.69-2.09-.75-5-2.19-6.13-5.35-4.22-11.16-7.84-16.77-11.73-2.11-1.46-4.15-3-6.5-4.77,5-4.68,10.07-3.25,13.95-.66,10.76,7.2,21.3,14.8,31.39,22.91,3.67,3,6.32,4.07,11,.78-10.25-7.63-19.86-15.33-30-22.23-18.92-12.85-18.92-31-12.75-46.52,1.62-4.08,3.75-8,5.69-11.92,7.3-14.83,14.86-29.53,21.84-44.5,5.27-11.32,7.59-23.06,6-35.93-2.26-18.51-.58-37.46-7.65-55.39-4.05-10.27-5.23-11.41-14.82-5.37a296.93,296.93,0,0,0-76.27,68.79c-9.14,11.72-11,27.1-10.92,41.63.07,23.33,1.54,46.68,3.11,70,.7,10.27.21,19.49-4.65,29.19C127,440.75,123.62,515.25,144.7,591.77c11.21,40.65,26,79.57,50.87,114.1C230.33,754.21,276.52,788,331.23,810c24.87,10,50.77,17.63,76.62,24.8,13.18,3.65,26.68-.26,39.31-5.56l6.69-2.8,4.46,7.6c-9,2.83-16.9,6.22-25.15,7.65-9,1.58-18.39,1.56-27.61,1.85-14.8.46-19.68,3.17-23.18,17.35-3.84,15.55-6.2,31.46-8.93,47.26a26.26,26.26,0,0,0,.52,9.2c1.92,9.87,7.41,12.92,16.8,9.33,15.84-6.06,28.36-16.87,39.92-28.81,15.19-15.68,29.89-31.84,45.12-47.48,3.76-3.87,8.62-6.74,13.26-9.61,1.14-.7,4.61,0,4.9.83a6.59,6.59,0,0,1-.73,5.56c-2.35,2.83-5.41,5.07-8.38,7.74.68.53,1.15,1.2,1.58,1.18,25.24-1.41,48.67,6.71,72.49,13.21,17.62,4.8,35.61,8.25,53.45,12.22a36.94,36.94,0,0,0,5.89.33c.22-3.43.09-6.67.7-9.76.74-3.79,2.75-6.12,7-7.6a32,32,0,0,0,12.23-8.35c8.1-8.7,15.47-18.09,23.31-27a60.39,60.39,0,0,1,26.14-17.36c12.07-4.18,24-9,36.12-12.83,7.85-2.48,6.51-7.62,2.45-11.18a194.06,194.06,0,0,0-18-13.46c-1.17-.81-3.47-.56-5-.11-9.63,2.73-19.21,5.65-29.27,7.91l27.87-14.32C687.58,742,674.21,715.87,659,690.89c-11.23-18.39-24.84-35.33-37.66-52.72a11.84,11.84,0,0,0-7.21-4c-7.58-1.1-15.27-1.48-22.92-2.15,0-.37,0-.73-.07-1.1Zm-389,123.75a6.43,6.43,0,0,0-5.19-1c-10.7,4-21.39,8.1-31.83,12.74a33.86,33.86,0,0,0-9.94,7.49c-4.68,4.79-4.86,9.74-.41,14.7,3.49,3.89,7.29,8,11.8,10.41A366.66,366.66,0,0,0,225.24,813c4.29,1.75,10,1.29,14.78.25,6.61-1.46,12.94-4.28,19.29-6.75,8.37-3.24,16.64-6.72,23.51-9.52C264.17,782.3,244.72,766.89,225.15,751.64Zm488.56,73.17c6.47-2.9,13.45-5.76,20.79-1.07,1.1.7,4.33-.74,5.67-2.08.83-.83.62-3.82-.25-5a81.42,81.42,0,0,0-8.59-10,4.8,4.8,0,0,0-4-1.09c-23.78,7.5-47,15.66-65.33,34.13C651.79,850,650.77,862.33,649.16,875,663.2,848.28,688.29,836.23,713.71,824.81Zm.2,26.56c0,10.41-5.82,18.07-16.12,19.33a147.52,147.52,0,0,1-27,1c-11.26-.7-12.87,0-15.25,12.59,18.44.42,36-2.23,51.77-12.26,10.09-6.4,10.8-16.41,10.1-26.88a16.41,16.41,0,0,0-.82-3.09l-2.71,1.63Q713.9,847.52,713.91,851.37ZM474.48,896.26c1.84,5.78,8,8.39,14.83,6.15,18.51-6,33.77-17.3,48-30.46-4.61-3.31-6.92-2.24-10,1.85a68.56,68.56,0,0,1-32.91,23.31c-11.89,4.09-18.12-.54-18.45-13.25-.13-5,.83-10.06,1.16-15.1a49.21,49.21,0,0,0-.21-5.55l-2.73.23C472.26,874.35,471,885.35,474.48,896.26Zm23.82-10.75c8.95-5,17.55-10.55,27.6-16.72-8.9-3.46-15.24-4.74-21.35,1.84-4.39,4.73-9.85,8.46-14.83,12.64l.72,2.41C493.09,885.68,496.28,886.64,498.3,885.51Zm129.92-12.84c-1.33,1-1.49,6.2-.2,7.53,4.36,4.45,9.62,8,14.52,11.92V864.41C637.91,867,632.64,869.27,628.22,872.67Z"/><path class="cls-5" d="M244.78,204.18c-.71,3.32-1.08,6.75-2.17,9.94-9.66,28.14-19.54,56.21-29.12,84.38a54.36,54.36,0,0,0-2.7,14.12c-.12,1.91,2.14,4,3.31,6,1.8-1.37,4.48-2.37,5.23-4.18,3.13-7.51,5.67-15.26,8.43-22.93,4.4-12.22,8.53-24.55,13.36-36.61,1.36-3.39,4.72-6,7.16-9l2.61,1.5c-.88,4.63-1.24,9.44-2.72,13.87-5.92,17.77-12.19,35.43-18.3,53.13a5.3,5.3,0,0,0,.16,4.24c1.42-2,3.17-3.95,4.23-6.18C244,292,255,272,262.9,250.84c6.47-17.28,4.26-36.17,2.39-54.41a102.38,102.38,0,0,0-4.68-21.9c-2.88-8.55-7.74-9.85-15.3-5.18A132,132,0,0,0,210.12,201a84.23,84.23,0,0,1-16.28,16.33c-15,11-21.52,25.74-21.62,43.77q-.19,39.67,0,79.34c0,2.95,1,5.9,1.5,8.85l2,.27c1-4,2.12-8,2.87-12,5.4-29,10.62-58.08,16.19-87.07a39.65,39.65,0,0,1,5-12.13c1-1.74,3.79-2.46,5.77-3.64.66,2.1,2.21,4.38,1.83,6.27-2.51,12.5-5.14,25-8.32,37.35-3.57,13.86-7.93,27.51-11.53,41.37-.57,2.2,1.07,5,1.68,7.48,2.18-1.47,5.52-2.46,6.35-4.49,5.75-14,11.27-28.19,16.3-42.5,7.22-20.58,13.72-41.41,21-62,2-5.49,5.76-10.33,8.72-15.47Z"/><path class="cls-5" d="M526.24,662.13c-9.6-4.19-17.79-2.52-25.76-.84-48,10.11-70.38,53.42-61.56,98.38,7.13,36.35,29.63,61.68,60.33,80.68,18.25,11.3,38.18,18,59,22.42a27.2,27.2,0,0,0,3.92.25c-13.09-5.17-26-10.13-38.84-15.35-36.7-14.93-56.51-44.36-67.94-80.5-5.38-17-7.27-34.59-2.2-52.17,8.12-28.1,28.89-42,55.66-49C514.09,664.6,519.4,663.63,526.24,662.13Z"/><path class="cls-5" d="M442.28,856.82c-3.17.94-6.47,1.57-9.47,2.87-10.7,4.64-21.24,9.66-32,14.17-2.09.88-4.88.12-7.34.12.93-2.56,1.1-6.28,2.92-7.44a212.12,212.12,0,0,1,20.73-11.22c3.48-1.72,7.29-2.77,10.81-4.74-11.9-2.6-23.45-.36-34.83,2.42-2.11.51-4.1,4-5,6.56-6.08,16.9-10.15,34.25-9.88,52.34.12,8.46,4.91,12.05,12.59,8.69s15.46-7,21.61-12.41c13.23-11.58,25.52-24.26,38-36.7,2.48-2.48,4-5.9,6-8.88l-1.24-1.16-59,42.2-2.68-2.27c1.31-2.85,1.94-6.46,4.07-8.4a226,226,0,0,1,19.07-15.23c8.7-6.35,17.67-12.34,26.53-18.48C442.86,858.44,442.57,857.63,442.28,856.82Z"/><path class="cls-5" d="M581.91,863.46c-27.51-13.28-52.3-29.22-62.71-59.9-10.14-29.89-5.74-58.58,9.65-86.23-6-1.83-8.93,1.47-11.47,4.47a54.14,54.14,0,0,0-12.79,32.67c-1.8,34.72,7.47,65.59,34.85,88.74C551.58,853.48,566.61,858.87,581.91,863.46Z"/><path class="cls-5" d="M404.06,674.92c-8.83,8.69-21.78,17.65-18,33.52,2.32,9.67,2.34,21.58,13.54,27.85-7.52-12.27-11.59-24.89-7-39.09,4.48-14,16-21.43,26.18-30.2,6.53,11.44,3.63,26.61,17,34.29-8-13.31-12.8-26.93-7.54-42.38,5-14.77,17.93-22.75,28.94-32.89-1.33-.63-2.22-1.25-2.39-1.1-9.92,9.27-21.69,17.33-29,28.35-5.22,7.84-11.82,12.83-18.14,19-9.82-12.71-14.55-26-9.23-41.86,5-14.89,18.08-22.92,28.85-33.22-1.41-.8-2-1.22-2.05-1.14-9.87,9-20.28,17.53-29.35,27.29-6.37,6.84-7.17,15.72-3.43,24.8,2,4.87,2.68,10.27,4.68,15.13C398.61,667,401.29,670.4,404.06,674.92Z"/><path class="cls-5" d="M327.81,647.56c7.53,9.28,4,22.48,15.9,27.76-8.12-12.37-11.65-25.33-7.09-39.59,4.47-14,17.25-21.23,25.84-31.92-13.35,10.25-28.7,18.48-33.28,36.91-1,4-4.8,7.3-7.65,11.4-9.24-10-11-21-5.92-31,4.59-9,12.58-16.37,18.3-23.51-22,6-31,34.38-16.5,56.3-8.23,9.28-19,18.12-14.28,32.41,3,9,1.93,20.66,13.3,26-8.8-13.86-13-28.46-5.11-43.5C315.37,661.12,322.09,654.79,327.81,647.56Z"/><path class="cls-5" d="M282.79,639.79c.77,5.76,1.24,11.57,2.41,17.24,1.11,5.37,3,10.58,4.57,16.18-9.71,9.6-24.94,16.6-22.19,33.75,1.18,7.4,1.57,16.62,10.29,21.34-5.91-10.08-9.28-20.57-4.75-31.8,4.26-10.59,12.56-17.42,22.82-23.28-20.43-28.37-4.31-48.25,18.47-66.75-13,9.17-26.8,17-31.69,33.42Z"/><path class="cls-5" d="M351.86,682.76c-4.05,3.1-8.54,5.78-12.06,9.4-7.46,7.69-15,15.44-21.37,24-4.5,6-4.57,13.51-1.88,20.91,2.17,6,3.17,12.43,5.56,18.31,1.48,3.64,4.6,6.61,7,9.88l3.21-1.47c-9.49-13.74-14.67-28-9-44.42,5.37-15.69,19-24.15,30.24-34.73Z"/><path class="cls-5" d="M378.88,703.53c-12.45,8.06-24.8,16.1-32.25,29.3-4.07,7.22-5.26,14.64-2,22.74,2.2,5.47,2.84,11.57,5.09,17,1.39,3.37,4.48,6,8.27,8.3-7.73-13.79-13.11-27.53-7.37-43.17C356,723,368.33,714.06,378.88,703.53Z"/><path class="cls-5" d="M419.54,775.8c-8.43-12.29-13.09-25.08-7.67-39.88,5-13.55,17.55-20.53,25.89-31.2-13,8.9-26.74,17.16-32.22,33-1.47,4.23-.81,9.56.07,14.15a100.65,100.65,0,0,0,5.56,18.31c1.12,2.79,3.91,4.92,5.94,7.35Z"/><path class="cls-5" d="M374.21,693.26c-22.33-31.52-5.83-52.47,19.27-70.59-1.61-1.08-2.15-1.59-2.27-1.5-10.77,8-21.74,15.77-28.87,27.58-4.13,6.84-5,13.88-2.18,21.5,1.91,5.15,2.88,10.67,5,15.73,1.28,3.09,3.9,5.61,5.91,8.39Z"/><path class="cls-5" d="M569.12,756.12c0,8.53,2.46,13.12,8.73,14.52a7.78,7.78,0,0,0,5.71-1.58c.68-.53-.23-3.14-.44-4.8-.16-1.22-.94-3.06-.42-3.55,4.1-3.87,1.23-7-1.47-9.1-1.9-1.5-5.89-2.67-7.5-1.67C571.18,751.52,569.85,755.05,569.12,756.12Z"/><path class="cls-5" d="M282.72,639.89c-1.06-.14-2.5-.79-3.12-.34-9.32,7-19.36,13.43-23.78,24.92-3.49,9.08,2.05,17.12,4.07,25.5.57,2.34,2.88,4.25,4.39,6.36l2-1.2c-.92-1.77-1.76-3.59-2.77-5.3-7.47-12.67-5.67-27.2,4.92-37.37,4.59-4.41,9.56-8.42,14.38-12.64Z"/><path class="cls-5" d="M247.05,599.05c-6.84,10.63-3.9,21.31.11,31.86,1.06,2.79,3.2,5.18,6.27,7.63-15.46-24.88-3.22-41.53,16.72-56l-2.29-1.37-20.82,18Z"/><path class="cls-5" d="M591,772.51c7.57-8.93,4.43-21.25-6.61-30.21-7-5.65-13.45-4.73-19.18,3.49,8.71-6.34,14.77-2.22,20.34,4.2C591,756.23,594.38,763,591,772.51Z"/><path class="cls-5" d="M280.31,637.15c-15.08-22.67-3.25-37.67,15.68-51.66-10.87,2.37-25.08,18-26.12,27C269,620.3,274.61,634.76,280.31,637.15Z"/><path class="cls-5" d="M247,599.13c-.55-2.22-.65-4.7-1.72-6.64-6-10.89-4.59-23.26,4.2-32,3.54-3.53,7.41-6.74,11.53-10.45-7.5,1.26-20.26,13.12-22.12,21.46-2.31,10.39,1.49,19.54,8.13,27.59A.37.37,0,0,0,247,599.13Z"/><path class="cls-5" d="M236.6,563.86c-9.78,6.75-21.15,12.47-22.09,25.72-.55,7.91,1.49,16.19,8.65,22.37C210,590.73,220.79,576.69,236.6,563.86Z"/><path class="cls-5" d="M617.8,857.14c2.67-12.67-1.83-12.43,19.21-35.42C622.16,826.69,612.29,845.85,617.8,857.14Z"/><path class="cls-5" d="M180.43,537.45c-5.2-14-5.4-18.35,8.32-31.1C174,512.69,170.06,526.24,180.43,537.45Z"/><path class="cls-5" d="M191.84,608.31c-8.77-14.07-2.18-23.74,9-32.08C184.69,583.1,180.93,596.86,191.84,608.31Z"/><path class="cls-5" d="M191.24,566.66c-9.13-13.46-3.29-22.86,7.89-31.32-6.94,2-14.77,9.52-14.74,15.53,0,5.3,2.3,10.59,3.58,15.88Z"/><path class="cls-5" d="M632.33,760.23c0-3.33.56-6.65-.24-9.6-.39-1.42-3.49-3.16-5.1-2.93-2,.28-3.74,2.45-4.83,3.24Z"/><path class="cls-5" d="M227,657.45c-5.78-10.65-4.28-19.91,5.12-28.17C221,633.14,217.1,647.19,227,657.45Z"/><path class="cls-5" d="M178.44,543.88c-13.42,7.74-15.81,16.54-7.06,27.51C163.87,559.47,169.55,551.33,178.44,543.88Z"/><path class="cls-5" d="M213,571.05c-4.75-8.78-5-17.15,2.34-25.52C205.81,548.52,204.72,561.21,213,571.05Z"/><path class="cls-5" d="M162.45,539.62c-4.62-9.17-3.57-17.28,5.34-24.6C157.26,519,154.14,530,162.45,539.62Z"/><path class="cls-5" d="M215.66,788.37l27.19-10.16-.48-2.68c-14.2-3.83-28.05,3.81-43.23,3.7,2.65-8.06,8.79-9.15,14.59-10.33s11.66-1.81,17.49-2.68l.73-2.08c-2.8-1.35-5.51-3.62-8.39-3.87a54.91,54.91,0,0,0-35.84,9.2c-8.08,5.39-8.46,12-1.32,18.59a89.76,89.76,0,0,0,37.43,20.36c4.29,1.18,9.52.07,14.06-1a190,190,0,0,0,19.44-6.46,35.79,35.79,0,0,0,8.24-4.09c1.42-1,3-3.24,2.77-4.65s-2.56-3.39-4.07-3.47a220.33,220.33,0,0,0-24.24-.42c-4.77.24-9.43,2.23-14.21,2.94-3.23.47-6.57.09-9.87.09Z"/></g></g></svg>