<svg id="Слой_1" data-name="Слой 1" xmlns="http://www.w3.org/2000/svg" viewBox="0 0 29.98 42.81"><defs><style>.cls-1{fill:#008780;}.cls-2{fill:#434962;}.cls-3{fill:#00a19a;}.cls-4{fill:#dadada;}.cls-5{fill:#a8dbef;}</style></defs><path class="cls-1" d="M13.55.1a14.17,14.17,0,0,0-2.82.45A9.32,9.32,0,0,0,9.48,1c-.44.18-.88.37-1.3.59A15.5,15.5,0,0,0,5.86,3.12c-.17.14-.33.28-.48.43h0L4.9,4c-.35.34-.68.7-1,1.06s-.61.72-.89,1.1-.55.76-.8,1.15a9,9,0,0,0-.64,1.18,15.17,15.17,0,0,0-1,2.68c-.11.44-.21.89-.29,1.35A14.66,14.66,0,0,0,.06,14,10.78,10.78,0,0,1,0,15.39v1.39a13.17,13.17,0,0,0,.64,2.83A21.79,21.79,0,0,0,1.76,22.3c.21.42.45.82.68,1.22s.42.79.65,1.17l.7,1.16L4.58,27c.49.8,1,1.61,1.48,2.41S7,31,7.48,31.79s.94,1.57,1.43,2.35,1,1.56,1.48,2.34l.77,1.16c.24.38.48.77.73,1.14s.53.79.78,1.19c.11.19.22.38.34.56s.26.37.38.56l.71,1.12a2.91,2.91,0,0,0,.26.33.88.88,0,0,0,.36.24.92.92,0,0,0,.67-.08,2.34,2.34,0,0,0,.66-.51c.09-.08.17-.17.26-.26.32-.34.65-.68,1-1a8,8,0,0,0,.93-1.19c.54-.76,1.06-1.53,1.55-2.31s1-1.58,1.49-2.38L22,33.9c.26-.4.52-.8.76-1.22s.48-.79.72-1.19l.69-1.18c.23-.4.46-.79.68-1.2s.43-.84.64-1.27c.84-1.68,1.72-3.35,2.45-5.08.17-.42.33-.84.49-1.25s.3-.84.43-1.27a27.08,27.08,0,0,0,.64-2.66,24.39,24.39,0,0,0,.4-2.83,14,14,0,0,0,0-2.75,8.11,8.11,0,0,0-.14-.86,2.61,2.61,0,0,0-.16-.64c-.11-.44-.22-.88-.37-1.31s-.35-.94-.55-1.41a10.84,10.84,0,0,0-.61-1.17,9.26,9.26,0,0,0-.78-1.18,11.26,11.26,0,0,0-.94-1.13c-.33-.32-.65-.65-1-.94s-.79-.58-1.19-.85a14.55,14.55,0,0,0-2.39-1.3Q21.1.91,20.39.67A11.51,11.51,0,0,0,19.1.31,12.88,12.88,0,0,0,17.59.05H16a19.27,19.27,0,0,0-2.4.1Zm-7,10.13.15-.3.2-.37a10.45,10.45,0,0,1,.74-1.13l.25-.31c.1-.12.22-.24.33-.36s.21-.2.32-.3l.3-.26c.15-.11.3-.22.46-.32a7.14,7.14,0,0,1,1.08-.61c.22-.08.45-.17.69-.24l.68-.22c.74-.09,1.47-.22,2.2-.34l.81-.06h1a13.57,13.57,0,0,1,1.91.09,11,11,0,0,1,2.1.6,11.23,11.23,0,0,1,2,1.12c.24.19.46.39.68.59a6.47,6.47,0,0,1,.61.67,12.39,12.39,0,0,1,1.3,2.19,11.84,11.84,0,0,1,.49,1.53,13.47,13.47,0,0,1,.31,1.66c0,.31.06.62.07.93s0,.67,0,1a18.14,18.14,0,0,1-.13,1.81c-.05.32-.09.64-.16.95s-.14.65-.23,1-.18.67-.28,1-.22.62-.34.93A12.89,12.89,0,0,1,23.3,23c-.16.26-.32.53-.5.79l-.49.69c-.09.11-.17.22-.26.31a5.71,5.71,0,0,1-.66.64c-.31.22-.62.42-.95.61a9.33,9.33,0,0,1-1,.5c-.33.13-.67.26-1,.37a7.25,7.25,0,0,1-1.14.26c-.31,0-.62.07-.93.08H14.28a5.38,5.38,0,0,1-.93-.11h0c-.43-.06-.86-.13-1.28-.23A8.19,8.19,0,0,1,11,26.49a8,8,0,0,1-.82-.43c-.27-.17-.53-.34-.79-.53a13.39,13.39,0,0,1-2.12-2,8.93,8.93,0,0,1-.6-.91c-.1-.19-.21-.38-.3-.57l-.23-.47c-.09-.23-.18-.47-.25-.7A8.84,8.84,0,0,1,5.64,20c-.08-.29-.14-.58-.2-.86s-.1-.53-.14-.8a13.35,13.35,0,0,1-.13-2V15.28a7.65,7.65,0,0,1,.11-1v.1a13.24,13.24,0,0,1,.37-1.77c.19-.61.4-1.21.62-1.81h0c.07-.17.14-.35.22-.51Zm7.33-4.75ZM2.61,8.87v0ZM1.4,12.92v0Zm0,.15h0v.21a.49.49,0,0,0,0-.17ZM25.1,17.6Zm1.64,5.12c0,.08-.07.16-.1.25h0l.11-.27Zm-5.38,2.72ZM15.12,41.51Z"/><path class="cls-2" d="M13.35,14.15a2.74,2.74,0,0,0-.72.19l-.66.2a9.59,9.59,0,0,0-1.16.45,9.72,9.72,0,0,0-1,.55,7,7,0,0,0-2.21,2,.29.29,0,0,0-.1.12.54.54,0,0,0,0,.55,2.22,2.22,0,0,0,.37.38c.21.17.42.32.64.48A10.74,10.74,0,0,0,11,20.37a12.85,12.85,0,0,0,1.34.4,8.59,8.59,0,0,0,1.43.17,15.7,15.7,0,0,0,2.74-.09A12,12,0,0,0,18,20.6a8.39,8.39,0,0,0,1.3-.47c.43-.18.85-.39,1.26-.61a7,7,0,0,0,1.17-.86,2.6,2.6,0,0,0,.3-.36,1.63,1.63,0,0,0,.23-.29v-.59c-.14-.18-.29-.36-.44-.53s-.27-.33-.41-.48l-.45-.49a5.47,5.47,0,0,0-.51-.45,5.61,5.61,0,0,0-1.18-.75l-.44-.19a.3.3,0,0,1-.18.06,3.17,3.17,0,0,1-.53-.05l-.42-.06h.08c-.31,0-.61-.09-.91-.11h-.51l-.5-.07a5.81,5.81,0,0,0-.59,0h-1a.31.31,0,0,1-.37-.13v-.11l-.41.09Zm-.24,5a.5.5,0,0,1-.17-.66c.07-.13.13-.27.19-.4a3.61,3.61,0,0,0,.24-.79,3.48,3.48,0,0,0,0-.79,3.86,3.86,0,0,0-.09-.49,2,2,0,0,0-.14-.41L13,15.3l-.29-.3a.32.32,0,0,1-.11-.24.36.36,0,0,1,.11-.26.31.31,0,0,1,.24-.1.35.35,0,0,1,.26.1l.1.09c.1.1.21.2.3.31a3.36,3.36,0,0,1,.32.51,3.56,3.56,0,0,1,.33,1,2.9,2.9,0,0,1,0,1.31,5.54,5.54,0,0,1-.21.57l-.09.2-.07.16h0v.13a.52.52,0,0,1-.34.34h-.12a.54.54,0,0,1-.25-.06Zm4.11-.2L17,18.9a2.17,2.17,0,0,1-.35-.15l-.54-.24-.27-.1-.4-.16-.23-.1a.52.52,0,0,1-.29-.34.46.46,0,0,1,.09-.42.32.32,0,0,1,0-.27.44.44,0,0,1,.17-.23L16,16.3h0l.29-.24.21-.18a3.11,3.11,0,0,1,.28-.23l.05-.05a1,1,0,0,1,.31-.19h.11a.55.55,0,0,1,.32.14.82.82,0,0,1,.16.45v2.45a.89.89,0,0,1,0,.23.49.49,0,0,1-.38.35h-.28Zm3.46-.35Zm-3.91,1.55Z"/><path class="cls-3" d="M22.2,17.42h0l-.06-.06.06.07Z"/><path class="cls-3" d="M22.41,13a.59.59,0,0,0-.29.18.93.93,0,0,0-.14.14c-.1.1-.19.21-.28.31l-.56.66L20,15.65a.51.51,0,0,0-.13.34.51.51,0,0,0,.13.33.48.48,0,0,0,.67,0L21.79,15l.38-.46v5.39L22,19.78c-.23-.1-.46-.22-.68-.34l-.63-.35c-.23-.12-.46-.24-.68-.38a.5.5,0,0,0-.58.08.48.48,0,0,0-.14.34.44.44,0,0,0,.14.33,1.31,1.31,0,0,0,.4.26l.35.16.61.31.59.28.69.28a2.32,2.32,0,0,0,.37.13.61.61,0,0,0,.42,0,.52.52,0,0,0,.11-.1.41.41,0,0,0,.13-.27,2.61,2.61,0,0,1-.17-.28,4.66,4.66,0,0,1-.56-1.48,8.27,8.27,0,0,1-.12-1,8,8,0,0,1,0-1.2,8.74,8.74,0,0,1,.15-1.24,8.11,8.11,0,0,1,.28-1.13c.08-.26.17-.51.27-.76h0a.5.5,0,0,0-.12-.28.42.42,0,0,0-.17-.1h-.21Z"/><path class="cls-3" d="M21.54,14.26c-.18.32-.36.64-.53,1-.08.13-.15.26-.22.4a2.89,2.89,0,0,0-.35.73.45.45,0,0,0,.21.52h.07v.38a.5.5,0,0,0,.47.53h.08a3.23,3.23,0,0,0,0,.44h0a1.27,1.27,0,0,0-.37-.18.58.58,0,0,0-.32,0,.61.61,0,0,0-.36.27.68.68,0,0,0-.08.31.55.55,0,0,0,.07.28.93.93,0,0,1-.06.4h0v.27a.6.6,0,0,0,.08.29.59.59,0,0,0,.81.21h0a.58.58,0,0,0,.12-.1l.06.08.08.09.05.06a.65.65,0,0,0,.17.16.58.58,0,0,0,.57,0,.64.64,0,0,0,.2-.2v-.09a.5.5,0,0,0,.3-.35V19.6a4.76,4.76,0,0,1-.27-.91,8.27,8.27,0,0,1-.12-1,8,8,0,0,1,0-1.2,8.74,8.74,0,0,1,.15-1.24,4.88,4.88,0,0,1,.12-.55h0a.48.48,0,0,0-.06-.33.49.49,0,0,0-.12-.13.29.29,0,0,0-.14-.13.44.44,0,0,0-.6.16Z"/><path class="cls-4" d="M10.49,16.21a1.18,1.18,0,0,0-.32.27A.87.87,0,0,0,10,17a1,1,0,0,0,.11.44,1,1,0,0,0,.31.32.72.72,0,0,0,.2.09H11a.89.89,0,0,0,.28-.07,1.9,1.9,0,0,0,.33-.22.66.66,0,0,0,.19-.44.9.9,0,0,0-.12-.53v-.07a1.43,1.43,0,0,0-.14-.2h0a.4.4,0,0,0-.15-.1,1.4,1.4,0,0,0-.29-.09H11a.87.87,0,0,0-.39.1Z"/><path class="cls-3" d="M12.71,14.53a.36.36,0,0,0-.11.26.32.32,0,0,0,.11.24l.25.27a2.69,2.69,0,0,1,.16.29,2,2,0,0,1,.14.41,4.63,4.63,0,0,0,.09.49,3.48,3.48,0,0,1,0,.79,3.52,3.52,0,0,1-.24.78c-.06.14-.12.28-.19.41a.49.49,0,0,0,.17.66.54.54,0,0,0,.25.06h.12a.49.49,0,0,0,.34-.33.29.29,0,0,1,0-.13h0l.07-.16.09-.2a5.54,5.54,0,0,0,.21-.57,2.9,2.9,0,0,0,0-1.31,3.56,3.56,0,0,0-.33-1,3.36,3.36,0,0,0-.32-.51c-.09-.11-.2-.21-.3-.31l-.1-.09a.35.35,0,0,0-.26-.1.31.31,0,0,0-.24.1Z"/><path class="cls-5" d="M9.35,13.89H9.19L9.07,14,9,14l-.11.12a.7.7,0,0,0-.11.23.74.74,0,0,0,0,.21A.52.52,0,0,0,9,15l.15.07h.3a.31.31,0,0,0,.2-.07.24.24,0,0,0,.12-.07.51.51,0,0,0,.12-.2.49.49,0,0,0,0-.24.62.62,0,0,0-.09-.26l-.09-.11L9.63,14a.38.38,0,0,0-.26-.13Z"/><path class="cls-5" d="M11.19,11.73a1.32,1.32,0,0,0-.76.89.74.74,0,0,0,0,.21.87.87,0,0,0,.1.31.4.4,0,0,0,.1.15l.1.13a.49.49,0,0,0,.13.12,1.09,1.09,0,0,0,.45.24.79.79,0,0,0,.43,0,.44.44,0,0,0,.19-.07.5.5,0,0,0,.19-.13,1.09,1.09,0,0,0,.13-.17.35.35,0,0,0,.06-.14.9.9,0,0,0,.11-.66,1,1,0,0,0-.27-.51L12,12a.75.75,0,0,0-.16-.15l-.2-.09h-.46Z"/><path class="cls-5" d="M13.73,9.91a1.59,1.59,0,0,0-.33.25,1.42,1.42,0,0,0-.25.34.37.37,0,0,0-.05.11,1.45,1.45,0,0,0-.19.93,1.14,1.14,0,0,0,.24.41,1.16,1.16,0,0,0,.29.25,1.42,1.42,0,0,0,.36.14,1.66,1.66,0,0,0,.91-.06,1.41,1.41,0,0,0,.34-.19.65.65,0,0,0,.18-.15l.14-.18a1,1,0,0,0,.16-.37,1.29,1.29,0,0,0,0-.48,1.4,1.4,0,0,0-.29-.76,1.17,1.17,0,0,0-.77-.42h-.12a1.6,1.6,0,0,0-.68.18Z"/><path class="cls-3" d="M16.38,12.45a1.39,1.39,0,0,0-.28.12l-.27.14-.59.31c-.45.24-.88.49-1.33.72a.32.32,0,0,0-.11.43.31.31,0,0,0,.37.13h1a5.81,5.81,0,0,1,.59,0l.5.07h.51a7.28,7.28,0,0,1,.91.11h-.08l.42.06a3.17,3.17,0,0,0,.53.05.32.32,0,0,0,.21-.08.27.27,0,0,0,.08-.19.39.39,0,0,0-.06-.18c0-.09-.09-.18-.13-.28a1.82,1.82,0,0,1-.11-.4v-.09a.33.33,0,0,0-.11-.15.39.39,0,0,0-.26,0l-.3.07h0l-.08-.18a.61.61,0,0,0-.07-.14l-.09-.14-.12-.09a.41.41,0,0,0-.22,0,1.79,1.79,0,0,0-.39.13l-.18.09v-.23a.35.35,0,0,0-.08-.13.23.23,0,0,0-.18-.08Zm1.53.8Zm-.05,0Zm.28.46Zm.09.28Z"/><path class="cls-3" d="M17.18,15.33a1,1,0,0,0-.31.19h-.05l-.28.24-.21.18-.29.24h0l-.79.59a.33.33,0,0,0-.17.23.32.32,0,0,0,0,.27.46.46,0,0,0-.09.42.52.52,0,0,0,.29.34l.23.1.4.16.27.1.53.24a2.75,2.75,0,0,0,.36.15l.2,0h.28a.49.49,0,0,0,.38-.35,1,1,0,0,0,0-.24V15.8a.82.82,0,0,0-.16-.45.55.55,0,0,0-.32-.14h-.11Zm.36.66Z"/><path class="cls-3" d="M16,14h-.71l-.69.05h-.52a5.42,5.42,0,0,0-.7.14.19.19,0,0,0-.13.23.18.18,0,0,0,.23.14h0c.21-.05.41-.09.62-.12h2.67l.51.09.57.12.49.12a2.06,2.06,0,0,1,.35.12l.15.08.09.06.13.06h0a.24.24,0,0,0,.3,0,.26.26,0,0,0,.07-.11.21.21,0,0,0,0-.19,1.19,1.19,0,0,0-.15-.18l-.16-.11-.29-.14-.34-.12-.41-.1a9.35,9.35,0,0,0-1-.19h-.54Zm-1.85.51Zm2.57,0Z"/><path class="cls-3" d="M14.59,13.93A3.81,3.81,0,0,0,14,14l-.34.07-.31.09a.28.28,0,0,0-.18.32.27.27,0,0,0,.32.18l.4-.11a2,2,0,0,1,.34-.06h1.25a5.53,5.53,0,0,1,1.22.09l.82.13a4.08,4.08,0,0,1,.85.22h0l.3.13.29.1.39.18a3.79,3.79,0,0,1,.34.2l.32.22.09.06.13.06h.06a.21.21,0,0,0,.19,0,.26.26,0,0,0,.11-.14.2.2,0,0,0,0-.15h0v-.07a.4.4,0,0,0-.13-.13l-.07-.05L20,15.05l-.29-.18-.4-.16L19,14.58l-.34-.13h.06a3.54,3.54,0,0,0-.57-.22,5.72,5.72,0,0,0-.57-.11A4.09,4.09,0,0,1,17,14l-.64,0H14.59Zm4.65.76h0Zm.92,1.11Z"/></svg>