<svg id="Layer_1" data-name="Layer 1" xmlns="http://www.w3.org/2000/svg" xmlns:xlink="http://www.w3.org/1999/xlink" viewBox="0 0 31.34 22.03"><defs><style>.cls-1,.cls-4,.cls-6{fill:#007599;}.cls-1,.cls-2,.cls-3{clip-rule:evenodd;}.cls-11,.cls-2,.cls-7{fill:#fff;}.cls-13,.cls-3,.cls-9{fill:#003f72;}.cls-4,.cls-7,.cls-9{fill-rule:evenodd;}.cls-5{clip-path:url(#clip-path);}.cls-8{clip-path:url(#clip-path-2);}.cls-10{clip-path:url(#clip-path-3);}.cls-12{clip-path:url(#clip-path-4);}</style><clipPath id="clip-path"><path class="cls-1" d="M24.81,10.27c1,1.21,4.27-2.67,6.53-4.35V22c-3.26-1.83-5.61-5.11-7.69-8.49a16.48,16.48,0,0,0,1.16-3.27"/></clipPath><clipPath id="clip-path-2"><path class="cls-1" d="M18.71,3.82a20.78,20.78,0,0,1,6.75,8.07c-1.81.86-2.52,3-3.95,4.11a13,13,0,0,1-8,2.87,13.9,13.9,0,0,1-10-4.77C4.86,9.73,9.36-1.21,18.71,3.82"/></clipPath><clipPath id="clip-path-3"><path class="cls-2" d="M12,1.69a12,12,0,0,1,6.72,2.13C13.12,1,11.26,12,8.24,13.91s-4.64.29-4.74.19A23.69,23.69,0,0,1,0,9.32C3.09,4.6,7.32,1.69,12,1.69"/></clipPath><clipPath id="clip-path-4"><path class="cls-3" d="M8.86,17.91c5.19,2.19,10.73.64,15.1-4.18.49-.54.91-1.12,1.38-1.69a25,25,0,0,1,6-5.45V.67c-5.08,4-8,11.47-12,14.85A10.91,10.91,0,0,1,8.86,17.91"/></clipPath></defs><path class="cls-4" d="M24.81,10.27c1,1.21,4.27-2.67,6.53-4.35V22c-3.26-1.83-5.61-5.11-7.69-8.49a16.48,16.48,0,0,0,1.16-3.27"/><g class="cls-5"><rect class="cls-6" x="23.65" y="5.92" width="7.69" height="16.1"/></g><path class="cls-7" d="M24.81,10.27c1,1.21,4.27-2.67,6.53-4.35V8.56c-1.88.38-3.63,2.16-4.9,3.65-.59.69-1.34,1.66-2,2.56-.27-.41-.52-.82-.78-1.23a16.48,16.48,0,0,0,1.16-3.27"/><path class="cls-4" d="M18.71,3.82a20.78,20.78,0,0,1,6.75,8.07c-1.81.86-2.52,3-3.95,4.11a13,13,0,0,1-8,2.87,13.9,13.9,0,0,1-10-4.77C4.86,9.73,9.36-1.21,18.71,3.82"/><g class="cls-8"><rect class="cls-6" x="3.5" y="-1.21" width="21.96" height="20.08"/></g><path class="cls-7" d="M23.67,8.86a26.27,26.27,0,0,1,1.79,3c-1.81.86-2.52,3-3.95,4.11a13,13,0,0,1-8,2.87,12.24,12.24,0,0,1-5.14-1.15c8.05,2.36,13.53-5.8,15.26-8.86"/><path class="cls-9" d="M18.71,3.82l.09.06s-2.65-.76-4.32,2.5C13,9.25,12.24,15.49,8,17.5A16.41,16.41,0,0,1,3.5,14.1C4.86,9.73,9.36-1.21,18.71,3.82"/><path class="cls-7" d="M12,1.69a12,12,0,0,1,6.72,2.13C13.12,1,11.26,12,8.24,13.91s-4.64.29-4.74.19A23.69,23.69,0,0,1,0,9.32C3.09,4.6,7.32,1.69,12,1.69"/><g class="cls-10"><rect class="cls-11" y="1" width="18.71" height="14.8"/></g><path class="cls-9" d="M8.86,17.91c5.19,2.19,10.73.64,15.1-4.18.49-.54.91-1.12,1.38-1.69a25,25,0,0,1,6-5.45V.67c-5.08,4-8,11.47-12,14.85A10.91,10.91,0,0,1,8.86,17.91"/><g class="cls-12"><rect class="cls-13" x="8.86" y="0.67" width="22.48" height="19.43"/></g></svg>