<svg id="Layer_1" data-name="Layer 1" xmlns="http://www.w3.org/2000/svg" xmlns:xlink="http://www.w3.org/1999/xlink" viewBox="0 0 250 136.48"><defs><style>.cls-1,.cls-5,.cls-7{fill:#007599;}.cls-1,.cls-2,.cls-3{clip-rule:evenodd;}.cls-12,.cls-2,.cls-8{fill:#fff;}.cls-10,.cls-14,.cls-3{fill:#003f72;}.cls-4{fill:none;}.cls-10,.cls-5,.cls-8{fill-rule:evenodd;}.cls-6{clip-path:url(#clip-path);}.cls-9{clip-path:url(#clip-path-2);}.cls-11{clip-path:url(#clip-path-3);}.cls-13{clip-path:url(#clip-path-4);}.cls-15{clip-path:url(#clip-path-5);}</style><clipPath id="clip-path"><path class="cls-1" d="M196.64,51.35c8.06,6.08,33.36-13.42,51.08-21.81v80.8c-25.5-9.17-43.91-25.62-60.16-42.57a70.17,70.17,0,0,0,9.08-16.42"/></clipPath><clipPath id="clip-path-2"><path class="cls-1" d="M148.89,19a134.63,134.63,0,0,1,52.8,40.48C187.56,63.81,182,74.6,170.76,80.12a140.81,140.81,0,0,1-62.23,14.4A140.65,140.65,0,0,1,29.81,70.58C40.45,48.62,75.67-6.26,148.89,19"/></clipPath><clipPath id="clip-path-3"><path class="cls-2" d="M96.29,8.28A133.73,133.73,0,0,1,148.89,19c-43.8-14.18-58.3,40.9-81.95,50.63-22.92,9.44-36.32,1.46-37.13,1a141.89,141.89,0,0,1-27.35-24A133.67,133.67,0,0,1,96.29,8.28"/></clipPath><clipPath id="clip-path-4"><path class="cls-3" d="M71.79,89.7A141.13,141.13,0,0,0,190,68.7c3.79-2.68,7.11-5.61,10.74-8.48a194.2,194.2,0,0,1,47-27.35V3.17c-39.74,20-62.92,57.58-94,74.52-40.49,22.1-81.95,12-81.95,12"/></clipPath><clipPath id="clip-path-5"><path class="cls-4" d="M9.21,119.53H2.11V81.08H12l10.23,29.21h0L32.41,81.08h9.92v38.45h-7.1V90.34h0L25.07,119.53H19.39L9.2,90.42h0Zm49.34,9.72H51.22l5.34-12.31v0L46,90.7h7.82l6.56,18.83h0l7-18.83H75.3Zm41.92-32.46v22.74H93.55V96.79H91.08V90.7h2.47a11.53,11.53,0,0,1,2.64-7.41,9.15,9.15,0,0,1,7.25-3l1.4,0v6.73h-.36a4.56,4.56,0,0,0-3.07.84,3.47,3.47,0,0,0-.94,2.71v.08h4.09v6.09Zm7.14-15.71h6.92v6.34h-6.92Zm0,9.62h6.92v28.83h-6.92Zm24.11,7.79a3.16,3.16,0,0,0-1-1.83,3.08,3.08,0,0,0-3.78.08,2.3,2.3,0,0,0-.75,1.77,2,2,0,0,0,.94,1.68,15.24,15.24,0,0,0,3.61,1.45,15,15,0,0,1,6.5,3.47,7.85,7.85,0,0,1,1.92,5.54,9.37,9.37,0,0,1-2.87,7.09,10.2,10.2,0,0,1-7.36,2.75,10.48,10.48,0,0,1-7.5-2.78,10.16,10.16,0,0,1-3.16-7.27h7.1a5,5,0,0,0,1.25,2.78,3.26,3.26,0,0,0,2.44,1,3.47,3.47,0,0,0,2.33-.78,2.56,2.56,0,0,0,.92-2,2.64,2.64,0,0,0-.83-2.08,9.32,9.32,0,0,0-3.23-1.48q-4.8-1.47-6.88-3.55a7.34,7.34,0,0,1-2-5.43,8.52,8.52,0,0,1,2.74-6.55,10,10,0,0,1,7-2.54,9.09,9.09,0,0,1,6.45,2.52,8.93,8.93,0,0,1,2.92,6.24ZM143,81.08h6.93V92.73a10.42,10.42,0,0,1,7.51-3,10.2,10.2,0,0,1,8.11,3.46q3,3.45,3,9.33v17h-6.93V104.05a10.25,10.25,0,0,0-1.46-6,4.94,4.94,0,0,0-4.28-2,5.13,5.13,0,0,0-4.48,2.08q-1.48,2.08-1.48,6.24v15.18H143Zm31.14,0h6.93v6.34h-6.93Zm0,9.62h6.93v28.83h-6.93Zm12.54,0h6.44v2.49a10.76,10.76,0,0,1,8-3.46,10.24,10.24,0,0,1,8.14,3.47q3,3.47,3,9.35v17h-6.93V104.1a10.31,10.31,0,0,0-1.47-6,4.94,4.94,0,0,0-4.29-2,5.17,5.17,0,0,0-4.49,2.08q-1.5,2.08-1.5,6.24v15.18h-6.92ZM231.88,125a8.63,8.63,0,0,0,6.65-2.77,9.77,9.77,0,0,0,2.52-6.11,13.6,13.6,0,0,1-10.1,4.41,13.2,13.2,0,0,1-10-4.48,16.29,16.29,0,0,1,0-21.77A13.22,13.22,0,0,1,231,89.73a12.91,12.91,0,0,1,9.77,4.19V90.7h6.7v23.42q0,7.77-4.33,12.46a14.86,14.86,0,0,1-11.48,4.7,16,16,0,0,1-9.07-2.6,12.55,12.55,0,0,1-5.22-6.94h8a5.25,5.25,0,0,0,2.5,2.34A8.77,8.77,0,0,0,231.88,125Zm.21-29a7.81,7.81,0,0,0-6,2.63,9.94,9.94,0,0,0,0,13,8.16,8.16,0,0,0,12,0,9.93,9.93,0,0,0,0-13A7.81,7.81,0,0,0,232.09,96Z"/></clipPath></defs><path class="cls-5" d="M196.64,51.35c8.06,6.08,33.36-13.42,51.08-21.81v80.8c-25.5-9.17-43.91-25.62-60.16-42.57a70.17,70.17,0,0,0,9.08-16.42"/><g class="cls-6"><rect class="cls-7" x="187.56" y="29.54" width="60.16" height="80.8"/></g><path class="cls-8" d="M196.64,51.35c8.06,6.08,33.36-13.42,51.08-21.81V42.75C233,44.66,219.32,53.62,209.34,61.1c-4.59,3.44-10.43,8.29-15.74,12.83q-3.07-3.06-6-6.16a70.17,70.17,0,0,0,9.08-16.42"/><path class="cls-5" d="M148.89,19a134.63,134.63,0,0,1,52.8,40.48C187.56,63.81,182,74.6,170.76,80.12a140.81,140.81,0,0,1-62.23,14.4A140.65,140.65,0,0,1,29.81,70.58C40.45,48.62,75.67-6.26,148.89,19"/><g class="cls-9"><rect class="cls-7" x="29.81" y="-6.26" width="171.87" height="100.78"/></g><path class="cls-8" d="M187.7,44.27a135.14,135.14,0,0,1,14,15.2C187.56,63.81,182,74.6,170.76,80.12a140.81,140.81,0,0,1-62.23,14.4A141.31,141.31,0,0,1,68.3,88.71c62.94,11.85,105.84-29.09,119.4-44.44"/><path class="cls-10" d="M148.89,19l.68.3c-.18,0-20.71-3.83-33.82,12.51C104.16,46.24,98.21,77.55,64.87,87.65A140.69,140.69,0,0,1,29.81,70.58C40.45,48.62,75.67-6.26,148.89,19"/><path class="cls-8" d="M96.29,8.28A133.73,133.73,0,0,1,148.89,19c-43.8-14.18-58.3,40.9-81.95,50.63-22.92,9.44-36.32,1.46-37.13,1a141.89,141.89,0,0,1-27.35-24A133.67,133.67,0,0,1,96.29,8.28"/><g class="cls-11"><rect class="cls-12" x="2.46" y="4.81" width="146.43" height="74.25"/></g><path class="cls-10" d="M71.79,89.7A141.13,141.13,0,0,0,190,68.7c3.79-2.68,7.11-5.61,10.74-8.48a194.2,194.2,0,0,1,47-27.35V3.17c-39.74,20-62.92,57.58-94,74.52-40.49,22.1-81.95,12-81.95,12"/><g class="cls-13"><rect class="cls-14" x="71.79" y="3.17" width="175.94" height="97.49"/></g><path class="cls-12" d="M9.21,119.45H2.11V81H12l10.23,29.21h0L32.41,81h9.92v38.45h-7.1V90.27h0L25.07,119.45H19.39L9.2,90.34h0Z"/><path class="cls-12" d="M58.55,129.17H51.22l5.34-12.3v0L46,90.62h7.82l6.56,18.83h0l7-18.83H75.3Z"/><path class="cls-12" d="M100.47,96.71v22.74H93.55V96.71H91.08V90.62h2.47a11.58,11.58,0,0,1,2.64-7.41,9.15,9.15,0,0,1,7.25-3l1.4,0V87h-.36a4.56,4.56,0,0,0-3.07.84,3.5,3.5,0,0,0-.94,2.72v.07h4.09v6.09Z"/><path class="cls-12" d="M107.61,81h6.92v6.35h-6.92Zm0,9.62h6.92v28.83h-6.92Z"/><path class="cls-12" d="M131.72,98.41a3.1,3.1,0,0,0-1-1.82,2.72,2.72,0,0,0-1.83-.61,2.81,2.81,0,0,0-2,.68,2.3,2.3,0,0,0-.75,1.78,1.94,1.94,0,0,0,.94,1.67,14.81,14.81,0,0,0,3.61,1.45,14.86,14.86,0,0,1,6.5,3.48,7.82,7.82,0,0,1,1.92,5.53,9.36,9.36,0,0,1-2.87,7.09,10.16,10.16,0,0,1-7.36,2.76,10.52,10.52,0,0,1-7.5-2.78,10.19,10.19,0,0,1-3.16-7.27h7.1a5.1,5.1,0,0,0,1.25,2.78,3.3,3.3,0,0,0,2.44.95,3.43,3.43,0,0,0,2.33-.79,2.55,2.55,0,0,0,.92-2,2.64,2.64,0,0,0-.83-2.08,9.54,9.54,0,0,0-3.23-1.47q-4.8-1.47-6.88-3.56a7.34,7.34,0,0,1-2-5.43,8.49,8.49,0,0,1,2.74-6.54,9.91,9.91,0,0,1,7-2.54,9.13,9.13,0,0,1,6.45,2.51,9,9,0,0,1,2.92,6.24Z"/><path class="cls-12" d="M143,81h6.93V92.65a10.37,10.37,0,0,1,7.51-3,10.22,10.22,0,0,1,8.11,3.45q3,3.45,3,9.34v17h-6.93V104a10.29,10.29,0,0,0-1.46-6,4.94,4.94,0,0,0-4.28-2A5.15,5.15,0,0,0,151.42,98q-1.48,2.09-1.48,6.25v15.17H143Z"/><path class="cls-12" d="M174.15,81h6.93v6.35h-6.93Zm0,9.62h6.93v28.83h-6.93Z"/><path class="cls-12" d="M186.69,90.62h6.44v2.49a10.79,10.79,0,0,1,8-3.45,10.23,10.23,0,0,1,8.14,3.46q3,3.47,3,9.35v17h-6.93V104a10.27,10.27,0,0,0-1.47-6A5,5,0,0,0,199.6,96,5.2,5.2,0,0,0,195.11,98q-1.5,2.09-1.5,6.25v15.17h-6.92Z"/><path class="cls-12" d="M231.88,124.88a8.65,8.65,0,0,0,6.65-2.76,9.82,9.82,0,0,0,2.52-6.12,13.61,13.61,0,0,1-10.1,4.42,13.23,13.23,0,0,1-10-4.48,16.3,16.3,0,0,1,0-21.78A13.21,13.21,0,0,1,231,89.66a12.88,12.88,0,0,1,9.77,4.19V90.62h6.7v23.43q0,7.76-4.33,12.46a14.85,14.85,0,0,1-11.48,4.69,15.91,15.91,0,0,1-9.07-2.6,12.52,12.52,0,0,1-5.22-6.94h8a5.31,5.31,0,0,0,2.5,2.35A8.9,8.9,0,0,0,231.88,124.88Zm.21-28.95a7.8,7.8,0,0,0-6,2.62,9.94,9.94,0,0,0,0,13,8.13,8.13,0,0,0,12,0,9.15,9.15,0,0,0,2.43-6.49,9.25,9.25,0,0,0-2.41-6.5A7.84,7.84,0,0,0,232.09,95.93Z"/><g class="cls-15"><ellipse class="cls-7" cx="121.77" cy="129.76" rx="136.72" ry="27.42"/></g></svg>