<?xml version="1.0" encoding="utf-8"?>
<!-- Generator: Adobe Illustrator 25.2.1, SVG Export Plug-In . SVG Version: 6.00 Build 0)  -->
<svg version="1.1" id="Слой_1" xmlns="http://www.w3.org/2000/svg" xmlns:xlink="http://www.w3.org/1999/xlink" x="0px" y="0px"
	 viewBox="0 0 30 42.8" style="enable-background:new 0 0 30 42.8;" xml:space="preserve">
<style type="text/css">
	.st0{fill:#513184;}
	.st1{fill:#434962;}
	.st2{fill:#00A19A;}
	.st3{fill:#DADADA;}
	.st4{fill:#A8DBEF;}
</style>
<path class="st0" d="M13.6,0.1c-1,0.1-1.9,0.2-2.8,0.5C10.3,0.7,9.9,0.8,9.5,1C9,1.2,8.6,1.4,8.2,1.6C7.4,2,6.6,2.5,5.9,3.1
	C5.7,3.3,5.5,3.4,5.4,3.5l0,0L4.9,4c-0.3,0.3-0.7,0.7-1,1.1S3.3,5.8,3,6.2S2.5,6.9,2.2,7.3C2,7.7,1.8,8.1,1.6,8.5
	c-0.4,0.9-0.8,1.8-1,2.7c-0.1,0.4-0.2,0.9-0.3,1.4c-0.1,0.5-0.2,1-0.2,1.5c0,0.5,0,0.9-0.1,1.4c0,0.2,0,0.5,0,0.7c0,0.2,0,0.4,0,0.6
	c0.1,1,0.3,1.9,0.6,2.8c0.3,0.9,0.7,1.8,1.1,2.7c0.2,0.4,0.5,0.8,0.7,1.2s0.4,0.8,0.7,1.2s0.5,0.8,0.7,1.2L4.6,27
	c0.5,0.8,1,1.6,1.5,2.4S7,31,7.5,31.8s0.9,1.6,1.4,2.3s1,1.6,1.5,2.3l0.8,1.2c0.2,0.4,0.5,0.8,0.7,1.1s0.5,0.8,0.8,1.2
	c0.1,0.2,0.2,0.4,0.3,0.6s0.3,0.4,0.4,0.6l0.7,1.1c0.1,0.1,0.2,0.2,0.3,0.3c0.1,0.1,0.2,0.2,0.4,0.2c0.2,0.1,0.5,0,0.7-0.1
	c0.2-0.1,0.5-0.3,0.7-0.5c0.1-0.1,0.2-0.2,0.3-0.3c0.3-0.3,0.6-0.7,1-1s0.6-0.8,0.9-1.2c0.5-0.8,1.1-1.5,1.5-2.3s1-1.6,1.5-2.4
	l0.7-1.2c0.3-0.4,0.5-0.8,0.8-1.2s0.5-0.8,0.7-1.2l0.7-1.2c0.2-0.4,0.5-0.8,0.7-1.2s0.4-0.8,0.6-1.3c0.8-1.7,1.7-3.4,2.5-5.1
	c0.2-0.4,0.3-0.8,0.5-1.2s0.3-0.8,0.4-1.3c0.3-0.9,0.5-1.8,0.6-2.7c0.2-0.9,0.3-1.9,0.4-2.8c0.1-0.9,0.1-1.8,0-2.7
	c0-0.3-0.1-0.6-0.1-0.9c0-0.2-0.1-0.4-0.2-0.6c-0.1-0.4-0.2-0.9-0.4-1.3s-0.4-0.9-0.5-1.4c-0.2-0.4-0.4-0.8-0.6-1.2
	c-0.2-0.4-0.5-0.8-0.8-1.2C27,5,26.7,4.7,26.4,4.3c-0.3-0.3-0.6-0.7-1-0.9s-0.8-0.6-1.2-0.8c-0.8-0.5-1.6-0.9-2.4-1.3
	c-0.5-0.2-0.9-0.4-1.4-0.5c-0.4-0.1-0.8-0.3-1.3-0.4c-0.5-0.1-1-0.2-1.5-0.3c-0.5,0-0.9,0-1.4,0H16C15.2,0.1,14.4,0.1,13.6,0.1
	L13.6,0.1z M6.6,10.2l0.2-0.3l0.2-0.4c0.2-0.4,0.5-0.8,0.7-1.1l0.2-0.3C8,8,8.1,7.9,8.2,7.8s0.2-0.2,0.3-0.3l0.3-0.3
	C9,7.1,9.1,7,9.3,6.9c0.3-0.2,0.7-0.4,1.1-0.6c0.2-0.1,0.4-0.2,0.7-0.2l0.7-0.2c0.7-0.1,1.5-0.2,2.2-0.3l0.8-0.1h1
	c0.6,0,1.3,0,1.9,0.1c0.7,0.1,1.4,0.3,2.1,0.6c0.7,0.3,1.4,0.7,2,1.1c0.2,0.2,0.5,0.4,0.7,0.6c0.2,0.2,0.4,0.4,0.6,0.7
	c0.5,0.7,0.9,1.4,1.3,2.2c0.2,0.5,0.4,1,0.5,1.5c0.1,0.5,0.2,1.1,0.3,1.7c0,0.3,0.1,0.6,0.1,0.9s0,0.7,0,1c0,0.6-0.1,1.2-0.1,1.8
	c0,0.3-0.1,0.6-0.2,1s-0.1,0.6-0.2,1s-0.2,0.7-0.3,1s-0.2,0.6-0.3,0.9c-0.2,0.5-0.5,1-0.8,1.5c-0.2,0.3-0.3,0.5-0.5,0.8l-0.5,0.7
	c-0.1,0.1-0.2,0.2-0.3,0.3c-0.2,0.2-0.4,0.4-0.7,0.6c-0.3,0.2-0.6,0.4-1,0.6c-0.3,0.2-0.7,0.4-1,0.5c-0.3,0.1-0.7,0.3-1,0.4
	c-0.4,0.1-0.8,0.2-1.1,0.3c-0.3,0-0.6,0.1-0.9,0.1h-1c-0.4,0-0.7,0-1.1,0s-0.6-0.1-0.9-0.1l0,0c-0.4-0.1-0.9-0.1-1.3-0.2
	c-0.4-0.1-0.7-0.3-1.1-0.4c-0.3-0.1-0.6-0.3-0.8-0.4c-0.3-0.2-0.5-0.3-0.8-0.5c-0.8-0.6-1.5-1.3-2.1-2c-0.2-0.3-0.4-0.6-0.6-0.9
	c-0.1-0.2-0.2-0.4-0.3-0.6l-0.2-0.5c-0.1-0.2-0.2-0.5-0.2-0.7c-0.1-0.3-0.2-0.6-0.3-0.9c-0.1-0.3-0.1-0.6-0.2-0.9s-0.1-0.5-0.1-0.8
	c-0.1-0.7-0.1-1.3-0.1-2c0-0.4,0-0.7,0-1.1s0.1-0.7,0.1-1c0,0,0,0.1,0,0.1c0.1-0.6,0.2-1.2,0.4-1.8c0.2-0.6,0.4-1.2,0.6-1.8l0,0
	C6.3,10.6,6.4,10.5,6.6,10.2L6.6,10.2z M13.9,5.5L13.9,5.5z M2.6,8.9L2.6,8.9L2.6,8.9z M1.4,12.9c0,0,0,0.1,0,0.1S1.4,12.9,1.4,12.9
	z M1.4,13.1L1.4,13.1v0.2C1.4,13.2,1.4,13.2,1.4,13.1L1.4,13.1z M25.1,17.6L25.1,17.6z M26.7,22.7c0,0.1-0.1,0.2-0.1,0.2l0,0l0,0
	L26.7,22.7L26.7,22.7z M21.4,25.4L21.4,25.4L21.4,25.4z M15.1,41.5L15.1,41.5L15.1,41.5L15.1,41.5z"/>
<path class="st1" d="M13.4,14.1c-0.2,0-0.5,0.1-0.7,0.2L12,14.5c-0.4,0.1-0.8,0.3-1.2,0.4c-0.3,0.2-0.7,0.3-1,0.6
	c-0.9,0.5-1.6,1.2-2.2,2c0,0-0.1,0.1-0.1,0.1c-0.1,0.2-0.1,0.4,0,0.5c0.1,0.1,0.2,0.3,0.4,0.4c0.2,0.2,0.4,0.3,0.6,0.5
	c0.8,0.5,1.6,1,2.5,1.3c0.4,0.2,0.9,0.3,1.3,0.4c0.5,0.1,0.9,0.2,1.4,0.2c0.9,0,1.8,0,2.7-0.1c0.5-0.1,1-0.1,1.5-0.2
	c0.4-0.1,0.9-0.3,1.3-0.5c0.4-0.2,0.9-0.4,1.3-0.6c0.4-0.2,0.8-0.5,1.2-0.9c0.1-0.1,0.2-0.2,0.3-0.4c0.1-0.1,0.2-0.2,0.2-0.3v-0.3
	c0-0.1,0-0.2,0-0.3c-0.1-0.2-0.3-0.4-0.4-0.5s-0.3-0.3-0.4-0.5l-0.5-0.5c-0.2-0.2-0.3-0.3-0.5-0.4c-0.4-0.3-0.8-0.5-1.2-0.8
	l-0.4-0.2c-0.1,0-0.1,0.1-0.2,0.1c-0.2,0-0.4,0-0.5-0.1l-0.4-0.1h0.1c-0.3,0-0.6-0.1-0.9-0.1h-0.5l-0.5-0.1c-0.2,0-0.4,0-0.6,0h-0.3
	h-0.2h-0.2h-0.2c0,0-0.1,0-0.1,0c-0.1,0.1-0.3,0-0.4-0.1c0,0,0-0.1,0-0.1L13.4,14.1L13.4,14.1z M13.1,19.1c-0.2-0.1-0.3-0.4-0.2-0.7
	c0.1-0.1,0.1-0.3,0.2-0.4c0.1-0.3,0.2-0.5,0.2-0.8c0-0.3,0-0.5,0-0.8c0-0.2,0-0.3-0.1-0.5c0-0.1-0.1-0.3-0.1-0.4L13,15.3L12.7,15
	c-0.1-0.1-0.1-0.1-0.1-0.2c0-0.1,0-0.2,0.1-0.3c0.1-0.1,0.1-0.1,0.2-0.1c0.1,0,0.2,0,0.3,0.1l0.1,0.1c0.1,0.1,0.2,0.2,0.3,0.3
	c0.1,0.2,0.2,0.3,0.3,0.5c0.2,0.3,0.3,0.7,0.3,1c0.1,0.4,0.1,0.9,0,1.3c-0.1,0.2-0.1,0.4-0.2,0.6L14,18.5l-0.1,0.2l0,0
	c0,0,0,0.1,0,0.1c-0.1,0.2-0.2,0.3-0.3,0.3h-0.1C13.3,19.1,13.3,19.1,13.1,19.1L13.1,19.1z M17.2,18.9l-0.2,0
	c-0.1,0-0.2-0.1-0.4-0.1l-0.5-0.2l-0.3-0.1l-0.4-0.2l-0.2-0.1c-0.1-0.1-0.3-0.2-0.3-0.3c0-0.1,0-0.3,0.1-0.4c0-0.1,0-0.2,0-0.3
	c0-0.1,0.1-0.2,0.2-0.2l0.8-0.6l0,0l0,0l0.3-0.2l0.2-0.2c0.1-0.1,0.2-0.2,0.3-0.2l0-0.1c0.1-0.1,0.2-0.1,0.3-0.2h0.1
	c0.1,0,0.2,0.1,0.3,0.1c0.1,0.1,0.2,0.3,0.2,0.4c0,0.1,0,0.2,0,0.3v0.1v0.1c0,0.2,0,0.3,0,0.5s0,0.5,0,0.7s0,0.4,0,0.6v0.1
	c0,0.1,0,0.2,0,0.2c0,0.2-0.2,0.3-0.4,0.4L17.2,18.9L17.1,19L17.2,18.9z M20.7,18.6L20.7,18.6L20.7,18.6z M16.8,20.1L16.8,20.1z"/>
<path class="st2" d="M22.2,17.4L22.2,17.4L22.2,17.4L22.2,17.4L22.2,17.4z"/>
<path class="st2" d="M22.4,13c-0.1,0-0.2,0.1-0.3,0.2c0,0-0.1,0.1-0.1,0.1c-0.1,0.1-0.2,0.2-0.3,0.3l-0.6,0.7L20,15.6
	c-0.1,0.1-0.1,0.2-0.1,0.3c0,0.1,0,0.2,0.1,0.3c0.2,0.2,0.5,0.2,0.7,0l1.1-1.3l0.4-0.5c0,0.1,0,0.1,0,0.2c0,0.2,0,0.4,0,0.7
	s0,0.5,0,0.7c0,0.4,0,0.9,0,1.3s0,0.9,0,1.3c0,0.3,0,0.6,0,0.9c0,0.1,0,0.2,0,0.4L22,19.8c-0.2-0.1-0.5-0.2-0.7-0.3l-0.6-0.4
	c-0.2-0.1-0.5-0.2-0.7-0.4c-0.2-0.1-0.4-0.1-0.6,0.1c-0.1,0.1-0.1,0.2-0.1,0.3c0,0.1,0,0.2,0.1,0.3c0.1,0.1,0.3,0.2,0.4,0.3l0.4,0.2
	l0.6,0.3l0.6,0.3l0.7,0.3c0.1,0.1,0.2,0.1,0.4,0.1c0.1,0.1,0.3,0.1,0.4,0c0,0,0.1-0.1,0.1-0.1c0.1-0.1,0.1-0.2,0.1-0.3
	c-0.1-0.1-0.1-0.2-0.2-0.3c-0.3-0.5-0.5-1-0.6-1.5c-0.1-0.3-0.1-0.7-0.1-1c0-0.4,0-0.8,0-1.2c0-0.4,0.1-0.8,0.1-1.2s0.2-0.8,0.3-1.1
	c0.1-0.3,0.2-0.5,0.3-0.8l0,0c0-0.1-0.1-0.2-0.1-0.3c0,0-0.1-0.1-0.2-0.1L22.4,13L22.4,13z"/>
<path class="st2" d="M21.5,14.3c-0.2,0.3-0.4,0.6-0.5,1c-0.1,0.1-0.1,0.3-0.2,0.4c-0.1,0.2-0.3,0.5-0.4,0.7c-0.1,0.2,0,0.4,0.2,0.5
	h0.1c0,0,0,0.1,0,0.1c0,0.1,0,0.2,0,0.3c0,0.3,0.2,0.5,0.5,0.5c0,0,0.1,0,0.1,0c0,0.1,0,0.3,0,0.4l0,0l0,0c-0.1-0.1-0.2-0.1-0.4-0.2
	c-0.1,0-0.2,0-0.3,0c-0.2,0-0.3,0.1-0.4,0.3c-0.1,0.1-0.1,0.2-0.1,0.3c0,0.1,0,0.2,0.1,0.3c0,0.1,0,0.3-0.1,0.4l0,0v0.3
	c0,0.1,0,0.2,0.1,0.3c0.2,0.3,0.5,0.4,0.8,0.2c0,0,0,0,0,0c0,0,0.1-0.1,0.1-0.1l0.1,0.1l0.1,0.1l0,0.1c0,0.1,0.1,0.1,0.2,0.2
	c0.2,0.1,0.4,0.1,0.6,0c0.1-0.1,0.1-0.1,0.2-0.2v-0.1c0.2-0.1,0.3-0.2,0.3-0.4c0-0.1,0-0.1,0-0.2c-0.1-0.3-0.2-0.6-0.3-0.9
	c-0.1-0.3-0.1-0.7-0.1-1c0-0.4,0-0.8,0-1.2c0-0.4,0.1-0.8,0.1-1.2c0-0.2,0.1-0.4,0.1-0.6l0,0c0-0.1,0-0.2-0.1-0.3
	c0-0.1-0.1-0.1-0.1-0.1c0-0.1-0.1-0.1-0.1-0.1c-0.1,0-0.1-0.1-0.2-0.1C21.8,14.1,21.6,14.1,21.5,14.3L21.5,14.3z"/>
<path class="st3" d="M10.5,16.2c-0.1,0.1-0.2,0.2-0.3,0.3C10.1,16.6,10,16.8,10,17c0,0.2,0,0.3,0.1,0.4c0.1,0.1,0.2,0.2,0.3,0.3
	c0.1,0,0.1,0.1,0.2,0.1h0.2H11c0.1,0,0.2,0,0.3-0.1c0.1-0.1,0.2-0.1,0.3-0.2c0.1-0.1,0.2-0.3,0.2-0.4c0-0.2,0-0.4-0.1-0.5v-0.1
	c0-0.1-0.1-0.1-0.1-0.2l0,0c0,0-0.1-0.1-0.1-0.1c-0.1,0-0.2-0.1-0.3-0.1H11c-0.1,0-0.3,0-0.4,0.1L10.5,16.2z"/>
<path class="st2" d="M12.7,14.5c-0.1,0.1-0.1,0.2-0.1,0.3c0,0.1,0,0.2,0.1,0.2l0.2,0.3c0.1,0.1,0.1,0.2,0.2,0.3
	c0.1,0.1,0.1,0.3,0.1,0.4c0,0.2,0.1,0.3,0.1,0.5c0,0.3,0,0.5,0,0.8c0,0.3-0.1,0.5-0.2,0.8c-0.1,0.1-0.1,0.3-0.2,0.4
	c-0.1,0.2-0.1,0.5,0.2,0.7c0.1,0,0.2,0.1,0.2,0.1c0,0,0.1,0,0.1,0c0.2,0,0.3-0.2,0.3-0.3c0,0,0-0.1,0-0.1l0,0l0.1-0.2l0.1-0.2
	c0.1-0.2,0.2-0.4,0.2-0.6c0.1-0.4,0.1-0.9,0-1.3c-0.1-0.3-0.2-0.7-0.3-1c-0.1-0.2-0.2-0.4-0.3-0.5c-0.1-0.1-0.2-0.2-0.3-0.3
	l-0.1-0.1c-0.1-0.1-0.2-0.1-0.3-0.1C12.8,14.5,12.7,14.5,12.7,14.5L12.7,14.5z"/>
<path class="st4" d="M9.4,13.9H9.2c0,0-0.1,0-0.1,0.1L9,14l-0.1,0.1c-0.1,0.1-0.1,0.1-0.1,0.2c0,0.1,0,0.1,0,0.2
	c0,0.2,0.1,0.3,0.2,0.4c0,0,0.1,0.1,0.1,0.1c0,0,0.1,0,0.1,0h0.1c0.1,0,0.1,0,0.2-0.1c0,0,0.1,0,0.1-0.1c0.1-0.1,0.1-0.1,0.1-0.2
	c0-0.1,0-0.2,0-0.2c0-0.1,0-0.2-0.1-0.3l-0.1-0.1c0,0,0-0.1-0.1-0.1C9.6,13.9,9.5,13.9,9.4,13.9L9.4,13.9z"/>
<path class="st4" d="M11.2,11.7c-0.3,0.1-0.5,0.3-0.6,0.5c-0.1,0.1-0.1,0.2-0.1,0.4c0,0.1,0,0.1,0,0.2c0,0.1,0,0.2,0.1,0.3
	c0,0.1,0.1,0.1,0.1,0.1l0.1,0.1c0,0,0.1,0.1,0.1,0.1c0.1,0.1,0.3,0.2,0.4,0.2c0.1,0,0.3,0,0.4,0c0.1,0,0.1,0,0.2-0.1
	c0.1,0,0.1-0.1,0.2-0.1c0.1-0.1,0.1-0.1,0.1-0.2c0,0,0.1-0.1,0.1-0.1c0.1-0.2,0.2-0.4,0.1-0.7c0-0.2-0.1-0.4-0.3-0.5
	c0,0-0.1-0.1-0.2-0.1c0-0.1-0.1-0.1-0.2-0.1l-0.2-0.1c-0.1,0-0.1,0-0.2,0l0,0C11.3,11.7,11.3,11.7,11.2,11.7L11.2,11.7z"/>
<path class="st4" d="M13.7,9.9c-0.1,0.1-0.2,0.1-0.3,0.2c-0.1,0.1-0.2,0.2-0.2,0.3c0,0,0,0.1-0.1,0.1c-0.1,0.2-0.2,0.4-0.2,0.6
	c0,0.1,0,0.3,0,0.4c0,0.2,0.1,0.3,0.2,0.4c0.1,0.1,0.2,0.2,0.3,0.2c0.1,0.1,0.2,0.1,0.4,0.1c0.3,0.1,0.6,0,0.9-0.1
	c0.1,0,0.2-0.1,0.3-0.2c0.1,0,0.1-0.1,0.2-0.1c0.1-0.1,0.1-0.1,0.1-0.2c0.1-0.1,0.1-0.2,0.2-0.4c0-0.2,0-0.3,0-0.5
	c0-0.3-0.1-0.5-0.3-0.8c-0.2-0.2-0.5-0.4-0.8-0.4h-0.1C14.1,9.7,13.9,9.8,13.7,9.9L13.7,9.9z"/>
<path class="st2" d="M16.4,12.4c-0.1,0-0.2,0.1-0.3,0.1l-0.3,0.1L15.2,13c-0.4,0.2-0.9,0.5-1.3,0.7c-0.1,0.1-0.2,0.3-0.1,0.4
	c0.1,0.1,0.2,0.2,0.4,0.1c0,0,0.1,0,0.1,0h0.2h0.2h0.2h0.3c0.2,0,0.4,0,0.6,0l0.5,0.1h0.5c0.3,0,0.6,0.1,0.9,0.1h-0.1l0.4,0.1
	c0.2,0,0.4,0,0.5,0.1c0.1,0,0.2,0,0.2-0.1c0.1,0,0.1-0.1,0.1-0.2c0-0.1,0-0.1-0.1-0.2c0-0.1-0.1-0.2-0.1-0.3
	c-0.1-0.1-0.1-0.3-0.1-0.4c0,0,0-0.1,0-0.1c0-0.1-0.1-0.1-0.1-0.1c-0.1,0-0.2,0-0.3,0l-0.3,0.1l0,0l-0.1-0.2c0,0,0-0.1-0.1-0.1
	c0,0-0.1-0.1-0.1-0.1l-0.1-0.1c-0.1,0-0.1,0-0.2,0c-0.1,0-0.3,0.1-0.4,0.1L16.8,13c0,0,0-0.1,0-0.1c0,0,0-0.1,0-0.1
	c0,0,0-0.1-0.1-0.1c0-0.1-0.1-0.1-0.2-0.1L16.4,12.4z M17.9,13.2L17.9,13.2z M17.9,13.2L17.9,13.2z M18.1,13.7L18.1,13.7z M18.2,14
	L18.2,14z"/>
<path class="st2" d="M17.2,15.3c-0.1,0-0.2,0.1-0.3,0.2h0l-0.3,0.2l-0.2,0.2L16,16.2l0,0l0,0l-0.8,0.6c-0.1,0-0.1,0.1-0.2,0.2
	c0,0.1,0,0.2,0,0.3c-0.1,0.1-0.1,0.3-0.1,0.4c0,0.2,0.1,0.3,0.3,0.3l0.2,0.1l0.4,0.2l0.3,0.1l0.5,0.2c0.1,0.1,0.2,0.1,0.4,0.1l0.2,0
	h0.1h0.1c0.2,0,0.3-0.2,0.4-0.4c0-0.1,0-0.2,0-0.2v0c0-0.2,0-0.4,0-0.6s0-0.5,0-0.7s0-0.3,0-0.5v-0.1v-0.1c0-0.1,0-0.2,0-0.3
	c0-0.2-0.1-0.3-0.2-0.4c-0.1-0.1-0.2-0.1-0.3-0.1h-0.1L17.2,15.3z M17.5,16L17.5,16L17.5,16z"/>
<path class="st2" d="M16,14h-0.7l-0.7,0.1h-0.5c-0.2,0-0.5,0.1-0.7,0.1c-0.1,0-0.2,0.1-0.1,0.2c0,0.1,0.1,0.2,0.2,0.1l0,0
	c0.2-0.1,0.4-0.1,0.6-0.1c0.2,0,0.3,0,0.5,0h0.7h0.7h0.7l0.5,0.1l0.6,0.1l0.5,0.1c0.1,0,0.2,0.1,0.4,0.1l0.1,0.1l0.1,0.1l0.1,0.1
	l0,0l0,0l0,0l0,0c0.1,0.1,0.2,0.1,0.3,0c0,0,0.1-0.1,0.1-0.1c0-0.1,0-0.1,0-0.2c0-0.1-0.1-0.1-0.1-0.2l-0.2-0.1l-0.3-0.1l-0.3-0.1
	l-0.4-0.1c-0.3-0.1-0.6-0.1-1-0.2h-0.3h-0.2L16,14z M14.1,14.5L14.1,14.5z M16.7,14.5L16.7,14.5z"/>
<path class="st2" d="M14.6,13.9c-0.2,0-0.4,0-0.6,0.1l-0.3,0.1l-0.3,0.1c-0.1,0-0.2,0.2-0.2,0.3c0,0.1,0.2,0.2,0.3,0.2l0.4-0.1
	c0.1,0,0.2,0,0.3-0.1c0.2,0,0.4,0,0.6,0h0.7c0.4,0,0.8,0,1.2,0.1l0.8,0.1c0.3,0,0.6,0.1,0.9,0.2l0,0l0.3,0.1l0.3,0.1l0.4,0.2
	c0.1,0.1,0.2,0.1,0.3,0.2l0.3,0.2l0.1,0.1l0.1,0.1h0.1c0.1,0,0.1,0,0.2,0c0.1,0,0.1-0.1,0.1-0.1c0,0,0-0.1,0-0.1l0,0l0,0l0,0v-0.1
	c0-0.1-0.1-0.1-0.1-0.1l-0.1-0.1L20,15.1l-0.3-0.2l-0.4-0.2L19,14.6l-0.3-0.1h0.1c-0.2-0.1-0.4-0.2-0.6-0.2c-0.2,0-0.4-0.1-0.6-0.1
	c-0.2,0-0.4-0.1-0.6-0.1l-0.6,0h-0.6L14.6,13.9L14.6,13.9z M19.2,14.7L19.2,14.7L19.2,14.7z M20.2,15.8L20.2,15.8z"/>
</svg>
